<svg width="192" height="192" viewBox="0 0 192 192" xmlns="http://www.w3.org/2000/svg">
  <defs>
    <radialGradient id="iconFire192" cx="50%" cy="30%">
      <stop offset="0%" stop-color="#ffaa00"/>
      <stop offset="25%" stop-color="#ff6600"/>
      <stop offset="65%" stop-color="#ff3333"/>
      <stop offset="100%" stop-color="#cc0000"/>
    </radialGradient>
    <filter id="iconGlow192">
      <feGaussianBlur stdDeviation="4" result="coloredBlur"/>
      <feMerge> 
        <feMergeNode in="coloredBlur"/>
        <feMergeNode in="SourceGraphic"/>
      </feMerge>
    </filter>
    <filter id="innerGlow">
      <feGaussianBlur stdDeviation="2" result="coloredBlur"/>
      <feMerge> 
        <feMergeNode in="coloredBlur"/>
        <feMergeNode in="SourceGraphic"/>
      </feMerge>
    </filter>
  </defs>
  <rect width="192" height="192" rx="32" fill="url(#iconFire192)" filter="url(#iconGlow192)"/>
  <path d="M48 72 Q48 48 72 48 L120 48 Q144 48 144 72 L144 120 Q144 144 120 144 L96 144 L72 168 L72 144 Q48 144 48 120 Z" fill="white" opacity="0.95" filter="url(#innerGlow)"/>
  
  <!-- Мощные огненные языки -->
  <path d="M25 25 Q15 45 25 65 Q35 45 25 25" fill="#ffaa00" opacity="0.8">
    <animateTransform attributeName="transform" type="rotate" values="0 25 45;25 25 45;0 25 45" dur="5s" repeatCount="indefinite"/>
  </path>
  <path d="M96 15 Q86 35 96 55 Q106 35 96 15" fill="#ff6600" opacity="0.9">
    <animateTransform attributeName="transform" type="rotate" values="0 96 35;-20 96 35;0 96 35" dur="4s" repeatCount="indefinite"/>
  </path>
  <path d="M167 30 Q157 50 167 70 Q177 50 167 30" fill="#ff3333" opacity="0.7">
    <animateTransform attributeName="transform" type="rotate" values="0 167 50;22 167 50;0 167 50" dur="4.8s" repeatCount="indefinite"/>
  </path>
  
  <!-- Дополнительные малые языки пламени -->
  <path d="M15 100 Q10 110 15 120 Q20 110 15 100" fill="#ff6600" opacity="0.6">
    <animateTransform attributeName="transform" type="rotate" values="0 15 110;15 15 110;0 15 110" dur="3.2s" repeatCount="indefinite"/>
  </path>
  <path d="M177 100 Q172 110 177 120 Q182 110 177 100" fill="#ffaa00" opacity="0.6">
    <animateTransform attributeName="transform" type="rotate" values="0 177 110;-12 177 110;0 177 110" dur="3.8s" repeatCount="indefinite"/>
  </path>
  
  <!-- Плавающие угольки и искры -->
  <circle cx="35" cy="160" r="5" fill="#ffaa00" opacity="0.7">
    <animate attributeName="cy" values="160;125;160" dur="6s" repeatCount="indefinite"/>
    <animate attributeName="opacity" values="0.7;0.2;0.7" dur="6s" repeatCount="indefinite"/>
  </circle>
  <circle cx="157" cy="155" r="4" fill="#ff6600" opacity="0.8">
    <animate attributeName="cy" values="155;120;155" dur="5.5s" repeatCount="indefinite"/>
    <animate attributeName="opacity" values="0.8;0.3;0.8" dur="5.5s" repeatCount="indefinite"/>
  </circle>
  <circle cx="170" cy="170" r="3" fill="#ff3333" opacity="0.6">
    <animate attributeName="cy" values="170;145;170" dur="4.2s" repeatCount="indefinite"/>
    <animate attributeName="opacity" values="0.6;0.2;0.6" dur="4.2s" repeatCount="indefinite"/>
  </circle>
  <circle cx="20" cy="170" r="2.5" fill="#ff3333" opacity="0.5">
    <animate attributeName="cy" values="170;150;170" dur="3.5s" repeatCount="indefinite"/>
    <animate attributeName="opacity" values="0.5;0.2;0.5" dur="3.5s" repeatCount="indefinite"/>
  </circle>
  
  <!-- Точки в сообщении с огненным эффектом -->
  <circle cx="80" cy="88" r="6" fill="#ff3333" opacity="0.9">
    <animate attributeName="r" values="6;7;6" dur="2s" repeatCount="indefinite"/>
  </circle>
  <circle cx="96" cy="88" r="6" fill="#ff6600" opacity="0.9">
    <animate attributeName="r" values="6;7;6" dur="2.2s" repeatCount="indefinite"/>
  </circle>
  <circle cx="112" cy="88" r="6" fill="#ffaa00" opacity="0.9">
    <animate attributeName="r" values="6;7;6" dur="1.8s" repeatCount="indefinite"/>
  </circle>
</svg>